HIERARCHY
ROOT Hips
{
	OFFSET 54.952702 -37.264317 91.392891
	CHANNELS 6 Xposition Yposition Zposition Xrotation Yrotation Zrotation
	JOINT spine
	{
		OFFSET 0.000000 -0.393700 6.846367
		CHANNELS 3 Xrotation Yrotation Zrotation
		JOINT spine1
		{
			OFFSET 0.000000 -0.000004 9.496208
			CHANNELS 3 Xrotation Yrotation Zrotation
			JOINT spine2
			{
				OFFSET 0.000000 0.000000 9.099091
				CHANNELS 3 Xrotation Yrotation Zrotation
				JOINT Neck
				{
					OFFSET 0.000000 -1.113785 23.361214
					CHANNELS 3 Xrotation Yrotation Zrotation
					JOINT Head
					{
						OFFSET 0.000000 0.000000 7.058014
						CHANNELS 3 Xrotation Yrotation Zrotation
						End Site
						{
							OFFSET 0.000000 5.634186 17.084396
						}
					}
				}
				JOINT RightShoulder
				{
					OFFSET -3.831360 0.533489 9.826309
					CHANNELS 3 Xrotation Yrotation Zrotation
					JOINT RightArm
					{
						OFFSET 0.000000 -0.000004 12.888115
						CHANNELS 3 Xrotation Yrotation Zrotation
						JOINT RightArmRoll
						{
							OFFSET 0.000000 0.000000 6.506165
							CHANNELS 3 Xrotation Yrotation Zrotation
							JOINT RightForeArm
							{
								OFFSET 0.000000 -0.000004 18.950104
								CHANNELS 3 Xrotation Yrotation Zrotation
								JOINT RightForeArmRoll
								{
									OFFSET 0.000000 0.000000 7.300934
									CHANNELS 3 Xrotation Yrotation Zrotation
									JOINT RightHand
									{
										OFFSET 0.000000 -0.000004 14.651398
										CHANNELS 3 Xrotation Yrotation Zrotation
										End Site
										{
											OFFSET 0.000000 0.000000 0.100006
										}
									}
								}
							}
						}
					}
				}
				JOINT LeftShoulder
				{
					OFFSET 3.831360 0.533489 9.826309
					CHANNELS 3 Xrotation Yrotation Zrotation
					JOINT LeftArm
					{
						OFFSET 0.000000 -0.000004 12.888115
						CHANNELS 3 Xrotation Yrotation Zrotation
						JOINT LeftArmRoll
						{
							OFFSET 0.000000 0.000000 6.506165
							CHANNELS 3 Xrotation Yrotation Zrotation
							JOINT LeftForeArm
							{
								OFFSET 0.000000 -0.000004 18.950104
								CHANNELS 3 Xrotation Yrotation Zrotation
								JOINT LeftForeArmRoll
								{
									OFFSET 0.000000 0.000000 7.300919
									CHANNELS 3 Xrotation Yrotation Zrotation
									JOINT LeftHand
									{
										OFFSET 0.000000 -0.000004 14.651398
										CHANNELS 3 Xrotation Yrotation Zrotation
										End Site
										{
											OFFSET 0.000000 0.000000 0.100006
										}
									}
								}
							}
						}
					}
				}
			}
		}
	}
	JOINT RightUpLeg
	{
		OFFSET -6.068371 0.933475 -1.112778
		CHANNELS 3 Xrotation Yrotation Zrotation
		JOINT RightUpLegRoll
		{
			OFFSET 0.000000 -0.000004 17.179596
			CHANNELS 3 Xrotation Yrotation Zrotation
			JOINT RightLeg
			{
				OFFSET 0.000000 0.000004 -21.274300
				CHANNELS 3 Xrotation Yrotation Zrotation
				JOINT RightLegRoll
				{
					OFFSET 0.000000 -0.000004 21.343903
					CHANNELS 3 Xrotation Yrotation Zrotation
					JOINT RightFoot
					{
						OFFSET 0.000000 0.000000 17.765198
						CHANNELS 3 Xrotation Yrotation Zrotation
						JOINT RightToeBase
						{
							OFFSET 0.000000 -0.000004 14.850815
							CHANNELS 3 Xrotation Yrotation Zrotation
							End Site
							{
								OFFSET 0.006294 0.829006 7.192123
							}
						}
					}
				}
			}
		}
	}
	JOINT LeftUpLeg
	{
		OFFSET 6.068371 0.933475 -1.112778
		CHANNELS 3 Xrotation Yrotation Zrotation
		JOINT LeftUpLegRoll
		{
			OFFSET 0.000000 -0.000004 17.179703
			CHANNELS 3 Xrotation Yrotation Zrotation
			JOINT LeftLeg
			{
				OFFSET 0.000000 0.000000 21.274208
				CHANNELS 3 Xrotation Yrotation Zrotation
				JOINT LeftLegRoll
				{
					OFFSET 0.000000 -0.000004 21.541199
					CHANNELS 3 Xrotation Yrotation Zrotation
					JOINT LeftFoot
					{
						OFFSET 0.000000 -0.000004 17.567902
						CHANNELS 3 Xrotation Yrotation Zrotation
						JOINT LeftToeBase
						{
							OFFSET 0.000000 -0.000004 14.850800
							CHANNELS 3 Xrotation Yrotation Zrotation
							End Site
							{
								OFFSET -0.028210 0.829006 7.192139
							}
						}
					}
				}
			}
		}
	}
}
MOTION
Frames: 8
Frame Time: 0.041667
53.151604 -6.979105 76.656090 37.266779 1.712655 -4.012706 0.871631 -0.493943 0.601450 5.751503 -0.972288 1.214705 7.396513 -0.957670 1.226264 -5.731528 3.243419 -0.631975 2.438778 -4.261812 -0.948326 2.126051 -53.715285 3.257297 -65.451961 -139.083361 -102.933253 -0.000000 0.000013 -0.000011 29.705005 -24.255446 8.629888 -0.000010 0.000009 -3.010396 -4.999622 -7.998752 -0.000025 -1.642531 45.544535 0.253860 -57.800408 154.906177 59.915703 0.000001 0.000000 0.000003 0.159447 20.407526 2.495181 0.000000 -0.000004 3.236760 -5.000338 7.999182 -0.000198 -86.984768 -181.974544 -2.079267 179.999964 0.000005 -0.404001 132.396360 -2.846133 -2.874966 0.000004 0.000004 0.840855 67.892538 7.024498 1.870820 25.456854 -7.355619 -0.000002 -87.820086 164.670725 1.451399 -0.000005 -0.000004 -0.267917 -54.290069 6.232031 5.138243 -0.000004 -0.000000 -0.713743 70.418383 -6.999814 -1.744182 25.456959 7.355617 -0.000001 
53.164001 -7.069473 76.795502 37.186135 1.704491 -4.018649 0.879221 -0.497121 0.597760 5.766696 -0.978652 1.207479 7.411706 -0.964121 1.219121 -5.689726 3.303790 -0.629852 2.426184 -4.336913 -0.951431 2.185059 -53.793142 3.316681 -65.406172 -139.217506 -102.505758 -0.000000 0.000014 -0.000013 29.205278 -24.409040 8.532284 -0.000009 0.000006 -3.010399 -4.999621 -7.998749 -0.000027 -1.542104 45.744232 0.153124 -57.887486 154.944631 59.538868 0.000001 0.000000 0.000002 0.155729 19.970937 2.507262 0.000000 -0.000004 3.239659 -5.000337 7.999181 -0.000199 -86.641667 -182.002439 -2.127703 179.999964 0.000005 -0.404001 132.683924 -2.818203 -2.845666 0.000004 0.000005 0.834307 67.877409 7.022819 1.876054 25.456856 -7.355620 -0.000002 -87.464698 164.715175 1.455356 -0.000006 -0.000004 -0.269472 -54.012313 6.243848 5.110598 -0.000005 -0.000000 -0.707487 70.428560 -6.998447 -1.747308 25.456960 7.355614 -0.000001 
53.175598 -7.148632 76.930595 37.106686 1.696245 -4.023658 0.886053 -0.499771 0.594113 5.780354 -0.983971 1.200322 7.425375 -0.969526 1.212020 -5.651186 3.347588 -0.629094 2.417470 -4.395040 -0.953684 2.250211 -53.876057 3.382622 -65.369828 -139.340954 -102.089458 0.000000 0.000014 -0.000012 28.713002 -24.555432 8.433252 -0.000011 0.000009 -3.010396 -4.999621 -7.998752 -0.000025 -1.439514 45.937366 0.049119 -57.970677 154.984724 59.161521 0.000001 0.000000 0.000002 0.152060 19.537638 2.518018 0.000000 -0.000003 3.242560 -5.000338 7.999178 -0.000202 -86.300028 -182.026754 -2.175172 179.999964 0.000005 -0.403004 132.972063 -2.791818 -2.816885 0.000004 0.000004 0.827736 67.861973 7.021181 1.881316 25.456858 -7.355619 -0.000002 -87.112308 164.759572 1.459381 -0.000002 -0.000005 -0.271039 -53.739122 6.254702 5.082893 -0.000004 -0.000000 -0.701411 70.438081 -6.997041 -1.750464 25.456957 7.355614 -0.000001 
53.187103 -7.240578 77.073288 37.028750 1.687835 -4.027559 0.892024 -0.501802 0.590521 5.792298 -0.988062 1.193244 7.437305 -0.973701 1.205000 -5.616265 3.372382 -0.629827 2.413069 -4.433720 -0.954927 2.322693 -53.964799 3.456458 -65.343737 -139.452300 -101.685568 -0.000001 0.000013 -0.000010 28.230171 -24.693697 8.333323 -0.000009 0.000010 -3.010401 -4.999624 -7.998750 -0.000025 -1.334855 46.122430 -0.058147 -58.050311 155.025814 58.785362 0.000001 0.000000 0.000003 0.148443 19.108245 2.528149 0.000001 -0.000002 3.245511 -5.000338 7.999184 -0.000199 -85.960383 -182.047095 -2.222098 179.999964 0.000005 -0.403004 133.260734 -2.767687 -2.789312 0.000004 0.000004 0.821141 67.846291 7.019444 1.886775 25.456856 -7.355619 -0.000002 -86.763483 164.803982 1.462862 -0.000003 -0.000005 -0.272610 -53.471198 6.264568 5.055215 -0.000005 -0.000000 -0.695527 70.447083 -6.995662 -1.753458 25.456959 7.355614 -0.000001 
53.201599 -7.328175 77.213593 36.952519 1.679469 -4.030193 0.897048 -0.503236 0.586910 5.802324 -0.990972 1.186105 7.447349 -0.976696 1.197885 -5.583491 3.379407 -0.631724 2.412160 -4.455554 -0.954850 2.401966 -54.060869 3.537275 -65.328512 -139.552349 -101.294519 -0.000000 0.000014 -0.000014 27.754252 -24.825586 8.232910 -0.000010 0.000009 -3.010402 -4.999623 -7.998752 -0.000026 -1.227561 46.300637 -0.169365 -58.127485 155.067820 58.412509 0.000001 0.000000 0.000001 0.144878 18.682248 2.535803 0.000000 -0.000003 3.248439 -5.000338 7.999179 -0.000202 -85.622971 -182.063091 -2.267342 179.999964 0.000005 -0.402006 133.550402 -2.746583 -2.763658 0.000004 0.000004 0.814503 67.830294 7.017669 1.892442 25.456860 -7.355619 -0.000001 -86.418982 164.848870 1.467691 -0.000003 -0.000004 -0.274186 -53.209185 6.272893 5.027331 -0.000005 -0.000000 -0.689865 70.455546 -6.994240 -1.756481 25.456955 7.355615 -0.000001 
53.208004 -7.415569 77.349190 36.877786 1.671335 -4.031642 0.901188 -0.504194 0.583218 5.810539 -0.992944 1.178769 7.455566 -0.978756 1.190576 -5.551343 3.372396 -0.634347 2.413723 -4.465320 -0.953429 2.486411 -54.164988 3.623022 -65.323082 -139.643901 -100.914426 -0.000000 0.000013 -0.000010 27.281782 -24.953299 8.132192 -0.000009 0.000008 -3.010399 -4.999626 -7.998745 -0.000027 -1.117053 46.474462 -0.285066 -58.203826 155.110946 58.043911 0.000001 0.000000 0.000005 0.141352 18.258755 2.538817 0.000001 -0.000003 3.251300 -5.000336 7.999180 -0.000200 -85.287035 -182.075112 -2.310400 179.999964 0.000005 -0.402006 133.841641 -2.727880 -2.739085 0.000004 0.000004 0.807808 67.813861 7.015852 1.898131 25.456854 -7.355619 -0.000002 -86.077821 164.894605 1.472666 -0.000002 -0.000005 -0.275770 -52.952510 6.279281 4.998948 -0.000004 -0.000000 -0.684427 70.463592 -6.992848 -1.759432 25.456955 7.355613 -0.000001 
53.221001 -7.510281 77.497391 36.804058 1.663421 -4.032071 0.904538 -0.504734 0.579464 5.817164 -0.994093 1.171272 7.462187 -0.979995 1.183094 -5.520168 3.352655 -0.637664 2.417767 -4.463798 -0.950877 2.575497 -54.275958 3.713243 -65.325821 -139.727775 -100.543164 -0.000000 0.000014 -0.000015 26.812288 -25.076659 8.030894 -0.000009 0.000009 -3.010404 -4.999623 -7.998748 -0.000028 -1.003505 46.644608 -0.404944 -58.280126 155.153361 57.681426 0.000001 0.000000 0.000002 0.137862 17.837555 2.537400 0.000002 -0.000001 3.254089 -5.000338 7.999178 -0.000202 -84.952377 -182.083349 -2.352141 179.999964 0.000005 -0.400995 134.134192 -2.712308 -2.716289 0.000004 0.000004 0.801062 67.797011 7.014024 1.903945 25.456856 -7.355619 -0.000002 -85.739419 164.940872 1.478096 -0.000001 -0.000004 -0.277360 -52.700220 6.284194 4.970329 -0.000005 -0.000000 -0.679193 70.471194 -6.991451 -1.762413 25.456962 7.355614 -0.000000 
53.232502 -7.597935 77.632492 36.730954 1.655690 -4.031660 0.907206 -0.504917 0.575667 5.822399 -0.994533 1.163678 7.467420 -0.980527 1.175505 -5.490299 3.321467 -0.641651 2.424312 -4.451768 -0.947404 2.668765 -54.392778 3.807537 -65.335855 -139.804424 -100.179976 -0.000001 0.000014 -0.000015 26.345525 -25.195813 7.928941 -0.000008 0.000005 -3.010398 -4.999622 -7.998753 -0.000022 -0.887051 46.811466 -0.528698 -58.355613 155.196132 57.322281 0.000001 0.000001 0.000002 0.134407 17.418557 2.531794 0.000000 -0.000003 3.256801 -5.000339 7.999177 -0.000202 -84.618572 -182.088390 -2.391850 179.999964 0.000006 -0.400996 134.427863 -2.697816 -2.693112 0.000004 0.000004 0.794272 67.779724 7.012155 1.909875 25.456854 -7.355619 -0.000002 -85.402910 164.987495 1.482954 -0.000003 -0.000004 -0.278965 -52.451546 6.287811 4.941453 -0.000004 -0.000000 -0.674135 70.478290 -6.990080 -1.765332 25.456960 7.355615 -0.000002 
